<?xml version="1.0" encoding="UTF-8"?>
<svg xmlns="http://www.w3.org/2000/svg" xmlns:xlink="http://www.w3.org/1999/xlink" width="60" zoomAndPan="magnify" viewBox="0 0 45 50.249999" height="67" preserveAspectRatio="xMidYMid meet" version="1.0" style="background: transparent;"><defs><clipPath id="cbc8370303"><path d="M 0.332031 0 L 44.667969 0 L 44.667969 49.511719 L 0.332031 49.511719 Z M 0.332031 0 " clip-rule="nonzero"/></clipPath><clipPath id="4ea9b70c3d"><path d="M 1 4 L 44.667969 4 L 44.667969 46.925781 L 1 46.925781 Z M 1 4 " clip-rule="nonzero"/></clipPath></defs><g clip-path="url(#cbc8370303)"><path fill="#ffffff" d="M 0.332031 0 L 44.667969 0 L 44.667969 49.511719 L 0.332031 49.511719 Z M 0.332031 0 " fill-opacity="1" fill-rule="nonzero"/><path fill="#ffffff" d="M 0.332031 0 L 44.667969 0 L 44.667969 49.511719 L 0.332031 49.511719 Z M 0.332031 0 " fill-opacity="1" fill-rule="nonzero"/></g><g clip-path="url(#4ea9b70c3d)"><path fill="#31a010" d="M 33.757812 16.203125 L 33.835938 16.191406 C 33.8125 15.984375 33.722656 15.816406 33.558594 15.6875 C 33.367188 15.550781 33.160156 15.503906 32.929688 15.546875 C 32.882812 15.558594 32.839844 15.570312 32.792969 15.582031 C 29.898438 16.621094 26.613281 17.796875 24.082031 20.121094 C 21.671875 22.332031 20.480469 25.273438 20.882812 27.992188 C 21.078125 29.4375 21.679688 30.691406 22.683594 31.753906 C 22.132812 32.609375 21.578125 33.46875 21.023438 34.320312 C 18.355469 30.296875 15.746094 26.203125 13.265625 22.152344 C 13.101562 21.886719 12.863281 21.757812 12.554688 21.765625 C 12.242188 21.769531 12.007812 21.902344 11.847656 22.171875 C 11.71875 22.40625 11.734375 22.636719 11.882812 22.855469 C 14.621094 27.324219 17.476562 31.800781 20.382812 36.15625 C 20.492188 36.339844 20.65625 36.445312 20.871094 36.46875 C 20.941406 36.492188 21.015625 36.507812 21.089844 36.507812 C 21.335938 36.5 21.527344 36.394531 21.65625 36.179688 C 22.390625 35.0625 23.160156 33.867188 24.015625 32.539062 C 25.410156 32.949219 26.796875 32.914062 28.167969 32.433594 C 30.773438 31.5625 32.855469 29.160156 33.738281 26.019531 C 34.664062 22.710938 34.226562 19.25 33.839844 16.199219 Z M 31.644531 27.199219 C 30.515625 29.609375 27.777344 31.796875 24.886719 31.167969 C 26.691406 28.324219 28.429688 25.515625 30.054688 22.820312 C 30.203125 22.601562 30.214844 22.371094 30.085938 22.136719 C 29.925781 21.871094 29.6875 21.734375 29.378906 21.734375 C 29.0625 21.722656 28.828125 21.851562 28.671875 22.125 C 27.070312 24.78125 25.34375 27.566406 23.542969 30.398438 C 21.617188 28.109375 22.316406 24.644531 23.972656 22.519531 C 26.046875 19.859375 29.273438 18.511719 32.417969 17.367188 C 32.820312 20.675781 33.078125 24.148438 31.644531 27.199219 Z M 44.085938 24.332031 C 44.050781 23.640625 43.980469 22.957031 43.878906 22.273438 C 43.777344 21.589844 43.640625 20.914062 43.472656 20.242188 C 43.304688 19.574219 43.101562 18.914062 42.867188 18.265625 C 42.632812 17.613281 42.367188 16.976562 42.074219 16.351562 C 41.777344 15.730469 41.449219 15.121094 41.09375 14.53125 C 40.738281 13.9375 40.351562 13.363281 39.941406 12.8125 C 39.527344 12.257812 39.089844 11.726562 38.625 11.214844 C 38.160156 10.703125 37.671875 10.214844 37.160156 9.753906 C 36.644531 9.289062 36.113281 8.851562 35.558594 8.441406 C 35 8.03125 34.425781 7.648438 33.832031 7.296875 C 33.242188 6.941406 32.632812 6.617188 32.007812 6.324219 C 31.382812 6.03125 30.746094 5.765625 30.09375 5.535156 C 29.441406 5.304688 28.78125 5.105469 28.113281 4.9375 C 27.441406 4.773438 26.765625 4.636719 26.082031 4.539062 C 25.398438 4.4375 24.710938 4.371094 24.023438 4.339844 C 23.332031 4.304688 22.640625 4.308594 21.953125 4.34375 C 21.261719 4.378906 20.574219 4.445312 19.894531 4.550781 C 19.210938 4.652344 18.535156 4.789062 17.863281 4.957031 C 17.195312 5.125 16.535156 5.328125 15.882812 5.5625 C 15.234375 5.796875 14.597656 6.058594 13.972656 6.355469 C 13.351562 6.652344 12.742188 6.980469 12.152344 7.335938 C 11.558594 7.691406 10.984375 8.074219 10.433594 8.488281 C 9.878906 8.902344 9.34375 9.339844 8.835938 9.804688 C 8.324219 10.269531 7.835938 10.757812 7.375 11.269531 C 6.910156 11.78125 6.472656 12.316406 6.0625 12.871094 C 5.652344 13.429688 5.269531 14.003906 4.917969 14.59375 C 4.5625 15.1875 4.238281 15.796875 3.945312 16.421875 C 3.652344 17.046875 3.386719 17.683594 3.15625 18.335938 C 2.925781 18.988281 2.726562 19.648438 2.558594 20.316406 C 2.394531 20.988281 2.257812 21.664062 2.160156 22.347656 C 2.058594 23.03125 1.992188 23.71875 1.960938 24.40625 C 1.925781 25.097656 1.929688 25.789062 1.964844 26.476562 C 2 27.167969 2.066406 27.851562 2.171875 28.535156 C 2.273438 29.21875 2.410156 29.894531 2.578125 30.566406 C 2.746094 31.234375 2.949219 31.894531 3.183594 32.542969 C 3.417969 33.195312 3.679688 33.832031 3.976562 34.457031 C 4.273438 35.078125 4.601562 35.6875 4.957031 36.277344 C 5.3125 36.871094 5.695312 37.441406 6.109375 37.996094 C 6.523438 38.550781 6.960938 39.082031 7.425781 39.59375 C 7.890625 40.105469 8.378906 40.59375 8.890625 41.054688 C 9.402344 41.519531 9.9375 41.953125 10.492188 42.367188 C 11.050781 42.777344 11.625 43.15625 12.214844 43.511719 C 12.808594 43.867188 13.417969 44.191406 14.042969 44.484375 C 14.667969 44.777344 15.304688 45.042969 15.957031 45.273438 C 16.605469 45.503906 17.269531 45.703125 17.9375 45.871094 C 18.609375 46.035156 19.285156 46.167969 19.96875 46.269531 C 20.652344 46.371094 21.339844 46.4375 22.027344 46.46875 C 22.71875 46.5 23.410156 46.5 24.097656 46.464844 C 24.789062 46.429688 25.472656 46.359375 26.15625 46.257812 C 26.839844 46.152344 27.515625 46.015625 28.183594 45.847656 C 28.855469 45.679688 29.511719 45.476562 30.164062 45.242188 C 30.8125 45.007812 31.449219 44.742188 32.070312 44.445312 C 32.695312 44.148438 33.304688 43.820312 33.894531 43.464844 C 34.484375 43.109375 35.058594 42.726562 35.613281 42.3125 C 36.164062 41.898438 36.699219 41.460938 37.207031 40.996094 C 37.71875 40.53125 38.207031 40.042969 38.667969 39.53125 C 39.132812 39.019531 39.566406 38.484375 39.980469 37.929688 C 40.390625 37.375 40.769531 36.800781 41.125 36.207031 C 41.480469 35.613281 41.804688 35.007812 42.097656 34.382812 C 42.390625 33.757812 42.65625 33.121094 42.886719 32.46875 C 43.117188 31.820312 43.316406 31.160156 43.484375 30.488281 C 43.652344 29.820312 43.785156 29.140625 43.886719 28.460938 C 43.988281 27.777344 44.054688 27.089844 44.085938 26.398438 C 44.121094 25.710938 44.121094 25.019531 44.085938 24.332031 Z M 24.019531 44.925781 C 22.742188 44.988281 21.472656 44.929688 20.207031 44.746094 C 18.945312 44.558594 17.710938 44.253906 16.503906 43.824219 C 15.300781 43.398438 14.148438 42.855469 13.050781 42.203125 C 11.953125 41.546875 10.933594 40.792969 9.984375 39.9375 C 7.363281 37.5625 5.503906 34.695312 4.402344 31.335938 C 3.910156 29.726562 3.613281 28.078125 3.503906 26.398438 C 3.457031 25.464844 3.476562 24.535156 3.5625 23.605469 C 3.644531 22.675781 3.796875 21.757812 4.015625 20.851562 C 4.230469 19.945312 4.511719 19.058594 4.855469 18.191406 C 5.199219 17.324219 5.601562 16.484375 6.066406 15.675781 C 6.53125 14.867188 7.050781 14.09375 7.625 13.359375 C 8.199219 12.625 8.824219 11.933594 9.496094 11.289062 C 10.167969 10.644531 10.886719 10.050781 11.644531 9.507812 C 12.402344 8.964844 13.195312 8.480469 14.023438 8.050781 C 14.851562 7.621094 15.707031 7.253906 16.585938 6.945312 C 17.46875 6.640625 18.367188 6.398438 19.28125 6.21875 C 20.199219 6.039062 21.121094 5.929688 22.054688 5.882812 C 22.984375 5.835938 23.914062 5.859375 24.84375 5.945312 C 25.773438 6.035156 26.691406 6.1875 27.597656 6.40625 C 28.503906 6.625 29.390625 6.910156 30.257812 7.253906 C 31.121094 7.601562 31.960938 8.007812 32.765625 8.472656 C 33.574219 8.941406 34.347656 9.460938 35.078125 10.039062 C 36.601562 11.253906 37.921875 12.664062 39.039062 14.265625 C 40.152344 15.863281 41.019531 17.589844 41.636719 19.4375 C 42.144531 21.058594 42.445312 22.714844 42.542969 24.410156 C 42.578125 25.046875 42.578125 25.6875 42.546875 26.328125 C 42.515625 26.964844 42.453125 27.601562 42.359375 28.234375 C 42.265625 28.867188 42.140625 29.496094 41.988281 30.117188 C 41.832031 30.738281 41.648438 31.347656 41.433594 31.953125 C 41.21875 32.554688 40.972656 33.144531 40.703125 33.722656 C 40.429688 34.304688 40.128906 34.867188 39.800781 35.417969 C 39.472656 35.964844 39.117188 36.496094 38.738281 37.011719 C 38.355469 37.527344 37.953125 38.023438 37.523438 38.496094 C 37.09375 38.972656 36.644531 39.425781 36.171875 39.855469 C 35.695312 40.285156 35.203125 40.691406 34.691406 41.074219 C 34.175781 41.457031 33.648438 41.8125 33.097656 42.144531 C 32.550781 42.472656 31.988281 42.777344 31.410156 43.050781 C 30.832031 43.324219 30.242188 43.570312 29.640625 43.789062 C 29.039062 44.007812 28.425781 44.195312 27.808594 44.351562 C 27.1875 44.507812 26.558594 44.632812 25.925781 44.730469 C 25.292969 44.824219 24.660156 44.890625 24.019531 44.925781 Z M 24.019531 44.925781 " fill-opacity="1" fill-rule="nonzero"/></g></svg>